<svg width="111" height="28" viewBox="0 0 111 28" fill="none" xmlns="http://www.w3.org/2000/svg">
<g clip-path="url(#clip0_382_3260)">
<path fill-rule="evenodd" clip-rule="evenodd" d="M8.45486 15.9243V22.2413H5.88574V5.75808H10.0895C10.7763 5.75808 11.471 5.87571 12.087 6.20086C12.6468 6.49622 13.0735 6.93015 13.3662 7.50383C13.6857 8.13 13.7999 8.83939 13.7999 9.54109V12.2063C13.7999 12.8994 13.6878 13.5969 13.3618 14.2106C13.0626 14.7737 12.6305 15.1947 12.0757 15.4856C11.4617 15.8074 10.7732 15.9243 10.0895 15.9243H8.45486ZM98.3778 15.9243V22.2414H95.8088V5.75814H100.012C100.699 5.75814 101.394 5.87577 102.01 6.20086C102.57 6.49634 102.996 6.93022 103.289 7.50389C103.609 8.13007 103.723 8.83945 103.723 9.54116V12.2064C103.723 12.8994 103.611 13.597 103.285 14.2107C102.986 14.7738 102.553 15.1947 101.999 15.4856C101.385 15.8074 100.696 15.9243 100.012 15.9243H98.3778ZM89.8639 22.4097C89.1113 22.4097 88.3498 22.2838 87.6737 21.9288C87.0674 21.6104 86.594 21.1479 86.2689 20.5313C85.9158 19.8617 85.7901 19.1029 85.7901 18.3475V9.64056C85.7901 8.88294 85.9164 8.12172 86.2687 7.44937C86.5917 6.83294 87.0662 6.37049 87.6745 6.05887C88.3518 5.71191 89.1136 5.5899 89.8639 5.5899C90.6155 5.5899 91.3791 5.71051 92.0572 6.05893C92.6646 6.37104 93.1336 6.83525 93.459 7.44894C93.8153 8.12087 93.9453 8.88117 93.9453 9.64056V18.3475C93.9453 19.1047 93.816 19.8625 93.4589 20.5317C93.1312 21.1456 92.6635 21.6098 92.058 21.9287C91.3812 22.2852 90.6178 22.4097 89.8639 22.4097ZM82.3057 8.29575V22.2414H79.7403V8.29575H77.0326V5.75814H85.0135V8.29575H82.3057ZM74.2627 19.1938H71.1335L70.5645 22.2414H67.9241L71.6736 5.75814H73.7142L77.4749 22.2414H74.8346L74.2627 19.1938ZM37.513 8.29568V22.2414H34.9476V8.29568H32.2399V5.75808H40.2207V8.29568H37.513ZM62.5318 15.9243V22.2414H59.9627V5.75808H64.1664C64.8532 5.75808 65.5479 5.87565 66.1639 6.20086C66.7237 6.49628 67.1505 6.93015 67.4431 7.50383C67.7626 8.13 67.8768 8.83945 67.8768 9.54109V12.2064C67.8768 12.8994 67.7647 13.5969 67.4387 14.2107C67.1395 14.7738 66.7073 15.1947 66.1526 15.4855C65.5386 15.8074 64.8501 15.9243 64.1664 15.9243H62.5318ZM56.3288 13.6766C56.651 13.7648 56.9575 13.9009 57.2355 14.1C57.6035 14.3636 57.8835 14.7112 58.0754 15.1284C58.2862 15.5868 58.37 16.0836 58.37 16.5885V18.772C58.37 19.4183 58.2637 20.0704 57.9658 20.6454C57.6937 21.1703 57.294 21.564 56.7793 21.8332C56.2031 22.1346 55.5567 22.2414 54.9156 22.2414H50.6265V5.75808H54.6559C55.2977 5.75808 55.9564 5.86036 56.5371 6.1542C57.0573 6.41752 57.4638 6.80395 57.7461 7.32584C58.0497 7.88703 58.1623 8.52143 58.1623 9.15869V10.8986C58.1623 11.3683 58.087 11.8394 57.898 12.2692C57.7233 12.6666 57.4702 12.9993 57.1302 13.2592C56.8853 13.4464 56.6149 13.5824 56.3288 13.6766ZM46.3358 19.1938H43.2067L42.6376 22.2414H39.9973L43.7469 5.75808H45.7873L49.5482 22.2414H46.9078L46.3358 19.1938ZM27.8455 22.4097C27.1277 22.4097 26.4174 22.2739 25.7887 21.9036C25.2041 21.5593 24.7698 21.0631 24.4749 20.4395C24.1403 19.7323 24.0239 18.9371 24.0239 18.1563V9.84322C24.0239 9.06166 24.1416 8.26486 24.4748 7.55633C24.7686 6.93143 25.202 6.4336 25.7891 6.09182C26.4186 5.72525 27.1285 5.58984 27.8455 5.58984C28.5637 5.58984 29.2825 5.72452 29.9133 6.09182C30.5018 6.43445 30.9316 6.93077 31.2274 7.55615C31.5625 8.26426 31.6783 9.06148 31.6783 9.84322V10.9495H29.0796V9.84322C29.0796 9.54232 29.0425 9.23465 28.9349 8.95512C28.8453 8.73456 28.7144 8.54531 28.5178 8.41398C28.3158 8.279 28.0842 8.22685 27.8455 8.22685C27.6119 8.22685 27.3891 8.27979 27.1925 8.41355C26.9977 8.54616 26.8663 8.73736 26.7751 8.95464C26.6634 9.23434 26.6264 9.54262 26.6264 9.84322V18.1563C26.6264 18.451 26.6611 18.763 26.7746 19.0359C26.8666 19.2571 26.998 19.444 27.1931 19.5787C27.388 19.7133 27.6135 19.7611 27.8455 19.7611C28.0824 19.7611 28.3169 19.714 28.5174 19.5782C28.7139 19.445 28.8452 19.2601 28.9347 19.037C29.0458 18.76 29.0796 18.4424 29.0796 18.1448V17.05H31.6783V18.1448C31.6783 18.93 31.5632 19.724 31.2275 20.4356C30.9319 21.0624 30.5012 21.5576 29.9137 21.9036C29.2838 22.2747 28.5645 22.4097 27.8455 22.4097ZM18.1805 8.31481V12.7711H22.1568V15.3278H18.1805V19.6847H22.7021V22.2413H15.6114V5.75808H22.7021V8.31481H18.1805ZM8.45486 8.29568V13.3867H10.0672C10.2803 13.3867 10.4882 13.3424 10.6693 13.2224C10.8457 13.1055 10.9665 12.9424 11.0494 12.7453L11.0501 12.7435C11.156 12.5051 11.19 12.2332 11.19 11.9731V9.76671C11.19 9.49498 11.1558 9.21132 11.0559 8.9581C10.9759 8.75502 10.8533 8.58289 10.6732 8.46399C10.4902 8.34326 10.2829 8.29568 10.0672 8.29568H8.45486ZM98.3778 13.3868H99.9902C100.203 13.3868 100.411 13.3424 100.592 13.2224C100.769 13.1056 100.889 12.9424 100.972 12.7453L100.973 12.7435C101.079 12.5051 101.113 12.2332 101.113 11.9731V9.76671C101.113 9.49498 101.079 9.21132 100.979 8.9581C100.899 8.75508 100.776 8.58295 100.596 8.46405C100.413 8.34332 100.206 8.29575 99.9902 8.29575H98.3778V13.3868ZM89.8639 19.7841C90.1421 19.7841 90.4289 19.7362 90.6768 19.6004C90.8988 19.4788 91.0664 19.3008 91.1821 19.0728C91.3117 18.8057 91.3539 18.4982 91.3539 18.2022V9.77823C91.3539 9.48664 91.3126 9.18208 91.1825 8.91986C91.0668 8.68674 90.8996 8.5115 90.6763 8.38742C90.4298 8.25043 90.1412 8.20395 89.8639 8.20395C89.5873 8.20395 89.3013 8.2497 89.0556 8.38724C88.8336 8.51162 88.6701 8.68589 88.557 8.91906L88.5562 8.92065C88.4234 9.18226 88.3814 9.48609 88.3814 9.77823V18.2022C88.3814 18.4987 88.4243 18.8055 88.5566 19.072C88.6705 19.3017 88.8343 19.4787 89.0551 19.6006C89.3022 19.7369 89.5864 19.7841 89.8639 19.7841ZM72.6942 10.8358L71.5981 16.7059H73.7958L72.6942 10.8358ZM62.5318 8.29568V13.3867H64.1441C64.3573 13.3867 64.5652 13.3424 64.7462 13.2224C64.9226 13.1055 65.0434 12.9424 65.1263 12.7453L65.127 12.7435C65.2329 12.5051 65.2669 12.2331 65.2669 11.9731V9.76671C65.2669 9.49498 65.2327 9.21132 65.1329 8.95804C65.0528 8.75502 64.9302 8.58283 64.7501 8.46399C64.5671 8.34326 64.3597 8.29568 64.1441 8.29568H62.5318ZM53.1956 8.26127V12.4575H54.515C54.8333 12.4575 55.1136 12.3587 55.3226 12.1054C55.5557 11.8229 55.6155 11.4261 55.6155 11.0668V9.3614C55.6155 9.0605 55.5462 8.76191 55.3292 8.54799C55.1122 8.33412 54.8316 8.26127 54.5372 8.26127H53.1956ZM53.1956 14.9493V19.7306H54.6226C54.936 19.7306 55.2527 19.6628 55.4901 19.4386C55.7171 19.2243 55.7898 18.9237 55.7898 18.6152V16.4661C55.7898 16.1835 55.7535 15.89 55.6388 15.6306C55.5452 15.4191 55.4085 15.2475 55.2154 15.1263C55.0117 14.9984 54.7853 14.9493 54.5484 14.9493H53.1956ZM43.6713 16.7058H45.869L44.7673 10.8357L43.6713 16.7058Z" fill="white"/>
<path fill-rule="evenodd" clip-rule="evenodd" d="M0 0H110.01V28H0V0ZM1.01439 1.04574H108.996V26.9543H1.01439V1.04574Z" fill="white"/>
</g>
<defs>
<clipPath id="clip0_382_3260">
<rect width="110.01" height="28" fill="white"/>
</clipPath>
</defs>
</svg>
