<svg width="32" height="27" viewBox="0 0 32 27" fill="none" xmlns="http://www.w3.org/2000/svg">
<path d="M32 5.49935C32 2.56602 29.6 0.166016 26.6667 0.166016H5.33333C2.4 0.166016 0 2.56602 0 5.49935V21.4993C0 24.4327 2.4 26.8327 5.33333 26.8327H26.6667C29.6 26.8327 32 24.4327 32 21.4993V5.49935ZM8 5.49935C9.46667 5.49935 10.6667 6.69935 10.6667 8.16602C10.6667 9.63268 9.46667 10.8327 8 10.8327C6.53333 10.8327 5.33333 9.63268 5.33333 8.16602C5.33333 6.69935 6.53333 5.49935 8 5.49935ZM29.3333 21.4993C29.3333 22.966 28.1333 24.166 26.6667 24.166H5.86667C4.66667 24.166 4.13333 22.6993 4.93333 21.8993L9.73333 17.0993C10.2667 16.566 11.0667 16.566 11.6 17.0993L12.4 17.8993C12.9333 18.4327 13.7333 18.4327 14.2667 17.8993L23.0667 9.09935C23.6 8.56602 24.4 8.56602 24.9333 9.09935L28.9333 13.0993C29.2 13.366 29.3333 13.6327 29.3333 14.0327V21.4993Z" fill="white"/>
</svg>
