<svg width="32" height="27" viewBox="0 0 32 27" fill="none" xmlns="http://www.w3.org/2000/svg">
<path d="M4.62298 20.5073L4.60027 20.5253L4.57978 20.5458C3.4875 21.6381 4.18934 23.666 5.86667 23.666H25.6667C26.397 23.666 27.17 23.6213 27.7674 23.333C28.0803 23.1819 28.3572 22.9589 28.5513 22.6363C28.744 22.3162 28.8333 21.9343 28.8333 21.4993V14.0327C28.8333 13.7743 28.7897 13.5367 28.6902 13.3129C28.5971 13.1033 28.465 12.9285 28.3131 12.7724L25.3333 8.79935L25.312 8.77092L25.2869 8.74579C24.5583 8.0172 23.4417 8.0172 22.7131 8.74579L13.9131 17.5458C13.575 17.8839 13.0916 17.8839 12.7536 17.5458L11.9536 16.7458C11.2323 16.0245 10.1308 16.0173 9.40189 16.724L4.62298 20.5073ZM26.6667 0.666016C29.3239 0.666016 31.5 2.84216 31.5 5.49935V21.4993C31.5 24.1565 29.3239 26.3327 26.6667 26.3327H5.33333C2.67614 26.3327 0.5 24.1565 0.5 21.4993V5.49935C0.5 2.84216 2.67614 0.666016 5.33333 0.666016H26.6667ZM11.1667 8.16602C11.1667 6.42321 9.74281 4.99935 8 4.99935C6.25719 4.99935 4.83333 6.42321 4.83333 8.16602C4.83333 9.90882 6.25719 11.3327 8 11.3327C9.74281 11.3327 11.1667 9.90882 11.1667 8.16602Z" stroke="white"/>
</svg>
