<svg width="32" height="27" viewBox="0 0 32 27" fill="none" xmlns="http://www.w3.org/2000/svg">
<path d="M5.33333 0.666016H26.6667C29.3239 0.666016 31.5 2.84216 31.5 5.49935V21.4993C31.5 24.1565 29.3239 26.3327 26.6667 26.3327H5.33333C2.67614 26.3327 0.5 24.1565 0.5 21.4993V5.49935C0.5 2.84216 2.67614 0.666016 5.33333 0.666016ZM12.4619 19.389C13.0078 19.6847 13.7187 19.698 14.2919 19.2398L21.0354 15.0086C22.3215 14.4214 22.3215 12.5773 21.0354 11.9901L14.2919 7.7589C13.7187 7.30065 13.0078 7.31399 12.4619 7.6097C11.9121 7.90748 11.5 8.50303 11.5 9.23268V17.766C11.5 18.4957 11.9121 19.0912 12.4619 19.389Z" stroke="white"/>
</svg>
