<svg width="15" height="11" viewBox="0 0 15 11" fill="none" xmlns="http://www.w3.org/2000/svg">
<path d="M0.976641 2.36064C1.06644 1.92386 1.30408 1.53139 1.6495 1.24938C1.99492 0.967376 2.427 0.81308 2.87292 0.8125H12.1271C12.5831 0.813505 13.0241 0.97561 13.3723 1.27019C13.7204 1.56477 13.9532 1.97289 14.0297 2.42247L7.50206 4.9953L0.976641 2.36064ZM7.67189 5.93594C7.56018 5.98004 7.4358 5.97954 7.32445 5.93453L0.9375 3.35584V8.25208C0.938058 8.76521 1.14215 9.25717 1.50499 9.62001C1.86783 9.98285 2.35979 10.1869 2.87292 10.1875H12.1271C12.6402 10.1869 13.1322 9.98285 13.495 9.62001C13.8579 9.25717 14.0619 8.76521 14.0625 8.25208V3.41697L7.67189 5.93594Z" fill="white"/>
</svg>
