<svg width="14" height="14" viewBox="0 0 14 14" fill="none" xmlns="http://www.w3.org/2000/svg">
<path d="M3.69647 14H10.3035C12.341 14 14 12.3083 14 10.2375V3.7625C13.9709 1.69167 12.3119 0 10.2744 0H3.69647C1.65904 0 0 1.69167 0 3.7625V10.2375C0 12.3083 1.65904 14 3.69647 14ZM11.0603 2.33333C11.526 2.33333 11.9044 2.7125 11.9044 3.20833C11.9044 3.70417 11.526 4.08333 11.0603 4.08333C10.5946 4.08333 10.2162 3.70417 10.2162 3.20833C10.2162 2.7125 10.5946 2.33333 11.0603 2.33333ZM6.98545 3.5C8.87734 3.5 10.3909 5.075 10.3909 7C10.3909 8.925 8.87734 10.5 6.98545 10.5C5.09356 10.5 3.58004 8.925 3.58004 7C3.58004 5.075 5.09356 3.5 6.98545 3.5Z" fill="white"/>
</svg>
