<svg width="12" height="15" viewBox="0 0 12 15" fill="none" xmlns="http://www.w3.org/2000/svg">
<path d="M11.9748 7.02423C11.7727 8.44099 11.1666 9.64784 10.207 10.6448C9.65145 11.1696 9.14639 11.7468 8.59084 12.2714C7.78272 13.1635 6.97459 14.108 6.16649 15C4.44927 13.1635 2.78256 11.5893 1.21686 9.85773C0.307738 8.80831 -0.0458079 7.44402 0.00469863 6.02726C0.0552051 2.98387 2.328 0.360261 5.15636 0.0454281C8.33827 -0.321877 11.0656 1.56712 11.8737 4.66298C12.0757 5.29265 11.9748 6.91928 11.9748 7.02423ZM6.01497 8.28356C7.07564 8.28356 7.98473 7.39157 7.98473 6.28962C7.98473 5.1877 7.07564 4.2432 6.06548 4.2432C5.05535 4.2432 4.09573 5.1877 4.09573 6.23715C4.09573 7.33904 4.95434 8.28356 6.01497 8.28356Z" fill="white"/>
</svg>
