<svg width="15" height="15" viewBox="0 0 15 15" fill="none" xmlns="http://www.w3.org/2000/svg">
<path d="M7.50033 0.167969C3.45185 0.167969 0.166992 3.45282 0.166992 7.50131C0.166992 9.12239 0.691716 10.6156 1.57905 11.8313L0.64479 14.5957L3.5585 13.6871C4.69753 14.4123 6.04987 14.8346 7.50033 14.8346C11.5488 14.8346 14.8337 11.5498 14.8337 7.50131C14.8337 3.45282 11.5488 0.167969 7.50033 0.167969ZM10.8577 11.4346C9.5267 11.9679 7.93973 11.4516 6.20345 10.1335C4.46717 8.81522 3.32387 6.95951 3.24707 5.58158C3.17029 4.20365 4.29226 3.50828 4.9023 3.51255C5.51235 3.51681 6.18212 5.4664 6.19065 5.76502C6.19918 6.06791 5.44409 6.60543 5.41423 6.8614C5.38437 7.11736 6.44235 8.38014 6.89028 8.72139C7.33395 9.05839 8.25115 9.70689 8.7247 9.64714C9.19395 9.58314 9.50537 8.64031 9.80395 8.58064C10.1026 8.52089 11.7323 9.33147 11.8944 9.54047C12.0565 9.75381 12.0394 10.9653 10.8577 11.4346Z" fill="white"/>
</svg>
